<?xml version="1.0" encoding="utf-8"?>
<!-- Generator: Adobe Illustrator 22.0.1, SVG Export Plug-In . SVG Version: 6.00 Build 0)  -->
<svg version="1.1" id="Layer_1" xmlns="http://www.w3.org/2000/svg" xmlns:xlink="http://www.w3.org/1999/xlink" x="0px" y="0px"
	 viewBox="0 0 22.5 22.5" style="enable-background:new 0 0 22.5 22.5;" xml:space="preserve">
<style type="text/css">
	.st0{fill:#FFFFFF;}
</style>
<title>facebook_logo</title>
<g id="Layer_2_1_">
	<g id="Contact">
		<g id="footer">
			<path id="White" class="st0" d="M21.5,0H0.9C0.4,0,0,0.4,0,0.9v20.6c0,0.5,0.4,0.9,0.9,0.9c0,0,0,0,0,0h11V14H9.1v-3.5h2.8V7.7
				c0-2.9,1.8-4.3,4.4-4.3c0.9,0,1.8,0,2.6,0.1v3h-1.8c-1.4,0-1.7,0.7-1.7,1.6v2.3H19L18.3,14h-2.8l0.1,8.4h6c0.5,0,0.9-0.4,0.9-0.9
				c0,0,0,0,0,0V0.9C22.5,0.4,22,0,21.5,0z"/>
		</g>
	</g>
</g>
</svg>
