<?xml version="1.0" encoding="utf-8"?>
<!-- Generator: Adobe Illustrator 22.0.1, SVG Export Plug-In . SVG Version: 6.00 Build 0)  -->
<svg version="1.1" id="Layer_1" xmlns="http://www.w3.org/2000/svg" xmlns:xlink="http://www.w3.org/1999/xlink" x="0px" y="0px"
	 viewBox="0 0 22.5 22.5" style="enable-background:new 0 0 22.5 22.5;" xml:space="preserve">
<style type="text/css">
	.st0{fill:#FFFFFF;}
</style>
<title>instagram_logo</title>
<g id="Layer_2_1_">
	<g id="Contact">
		<g id="footer">
			<path class="st0" d="M19.8,0H2.7C1.2,0,0,1.2,0,2.7v17.1c0,1.5,1.2,2.7,2.7,2.7h17.1c1.5,0,2.7-1.2,2.7-2.7V2.7
				C22.5,1.2,21.3,0,19.8,0z M16.9,2.8H19c0.4,0,0.7,0.3,0.7,0.7c0,0,0,0,0,0v2.1c0,0.4-0.3,0.7-0.7,0.7l0,0h-2.1
				c-0.4,0-0.7-0.3-0.7-0.7v0V3.5C16.2,3.1,16.5,2.8,16.9,2.8L16.9,2.8z M11.3,7c2.4,0,4.3,1.9,4.3,4.3c0,2.4-1.9,4.3-4.3,4.3
				c-2.4,0-4.3-1.9-4.3-4.3C6.9,8.9,8.9,7,11.3,7z M19.7,20.4H2.8c-0.4,0-0.7-0.3-0.7-0.7l0,0V9.1h2.8c-0.3,0.7-0.5,1.4-0.5,2.1
				c0.1,3.8,3.3,6.7,7.1,6.6c3.6-0.1,6.4-3,6.6-6.6c0-0.7-0.1-1.5-0.5-2.1h2.8v10.5C20.4,20.1,20.1,20.4,19.7,20.4L19.7,20.4z"/>
		</g>
	</g>
</g>
</svg>
