<?xml version="1.0" encoding="utf-8"?>
<!-- Generator: Adobe Illustrator 22.0.1, SVG Export Plug-In . SVG Version: 6.00 Build 0)  -->
<svg version="1.1" id="Layer_1" xmlns="http://www.w3.org/2000/svg" xmlns:xlink="http://www.w3.org/1999/xlink" x="0px" y="0px"
	 viewBox="0 0 47.2 47.2" style="enable-background:new 0 0 47.2 47.2;" xml:space="preserve">
<style type="text/css">
	.st0{fill:#FFFFFF;}
</style>
<title>pinterest</title>
<path id="path4173" class="st0" d="M23.6,0C10.6,0,0,10.6,0,23.6C0,33,5.6,41.5,14.2,45.2c-0.2-1.9-0.1-3.8,0.2-5.6l2.9-12.4
	c-0.5-1.2-0.8-2.4-0.8-3.7c0-3.5,2-6.1,4.5-6.1c2.1,0,3.1,1.6,3.1,3.5c0,2.1-1.4,5.4-2.1,8.3c-0.5,1.9,0.7,3.9,2.6,4.4
	c0.4,0.1,0.7,0.1,1.1,0.1c4.5,0,7.9-4.7,7.9-11.5c0-6-4.3-10.2-10.5-10.2c-6-0.3-11,4.4-11.3,10.3c0,0.2,0,0.4,0,0.5
	c0,2.1,0.6,4,1.9,5.7c0.2,0.2,0.2,0.5,0.2,0.7c-0.2,0.8-0.6,2.5-0.7,2.8c-0.1,0.3-0.4,0.5-0.8,0.3c-3.1-1.5-5.1-6-5.1-9.7
	C7.5,15,13.2,7.8,24,7.8c8.7,0,15.4,6.2,15.4,14.4c0,8.6-5.4,15.6-13,15.6c-2.5,0-4.9-1.3-5.7-2.9c0,0-1.2,4.8-1.5,6
	c-0.6,1.9-1.4,3.7-2.4,5.3c12.5,3.7,25.6-3.4,29.3-15.9C49.8,17.8,42.7,4.7,30.2,1C28.1,0.4,25.8,0,23.6,0z"/>
</svg>
